# xmcd CD database file
#
# Track frame offsets:
#	150
#	13351
#	25230
#	38393
#	50691
#	64381
#	76984
#	91407
#	102324
#	116390
#	128002
#
# Disc length: 1891 seconds
#
# Revision: 0
# Processed by: cddbd v1.5.2PL0 Copyright (c) Steve Scherf et al.
# Submitted via: CDex 1.51
#
DISCID=8907610b
DTITLE=Seventh Star - The Undisputed Truth
DYEAR=2007
DGENRE=Salsa
TTITLE0=The Undisputed Truth
TTITLE1=Now at Hand
TTITLE2=World War Three
TTITLE3=Cursed Creation (The Fall of Man)
TTITLE4=Isaiah Six
TTITLE5=For All the Saints
TTITLE6=Seven
TTITLE7=The World's Solution
TTITLE8=I Versus I
TTITLE9=Overrun, Overgrown, Overthrown
TTITLE10=Chasing the Wind
EXTD=YEAR: 2007
EXTT0=
EXTT1=
EXTT2=
EXTT3=
EXTT4=
EXTT5=
EXTT6=
EXTT7=
EXTT8=
EXTT9=
EXTT10=
PLAYORDER=
